{
    "asset" : {
        "generator" : "Khronos glTF Blender I/O v3.2.40",
        "version" : "2.0"
    },
    "scene" : 0,
    "scenes" : [
        {
            "name" : "Scene",
            "nodes" : [
                0
            ]
        }
    ],
    "nodes" : [
        {
            "mesh" : 0,
            "name" : "\u041e\u043a\u0440\u0443\u0436\u043d\u043e\u0441\u0442\u044c"
        }
    ],
    "animations" : [
        {
            "channels" : [
                {
                    "sampler" : 0,
                    "target" : {
                        "node" : 0,
                        "path" : "rotation"
                    }
                },
                {
                    "sampler" : 1,
                    "target" : {
                        "node" : 0,
                        "path" : "translation"
                    }
                },
                {
                    "sampler" : 2,
                    "target" : {
                        "node" : 0,
                        "path" : "scale"
                    }
                }
            ],
            "name" : "\u041e\u043a\u0440\u0443\u0436\u043d\u043e\u0441\u0442\u044cAction.002",
            "samplers" : [
                {
                    "input" : 12,
                    "interpolation" : "LINEAR",
                    "output" : 13
                },
                {
                    "input" : 12,
                    "interpolation" : "LINEAR",
                    "output" : 14
                },
                {
                    "input" : 12,
                    "interpolation" : "LINEAR",
                    "output" : 15
                }
            ]
        }
    ],
    "materials" : [
        {
            "doubleSided" : true,
            "name" : "\u041c\u0430\u0442\u0435\u0440\u0438\u0430\u043b.002",
            "pbrMetallicRoughness" : {
                "baseColorFactor" : [
                    0.8000000715255737,
                    0.6047682166099548,
                    0,
                    1
                ],
                "metallicFactor" : 0.4876033067703247,
                "roughnessFactor" : 0.3429751992225647
            }
        },
        {
            "doubleSided" : true,
            "name" : "\u041c\u0430\u0442\u0435\u0440\u0438\u0430\u043b",
            "pbrMetallicRoughness" : {
                "baseColorFactor" : [
                    0.10653533786535263,
                    0.01537302415817976,
                    0.004040449857711792,
                    1
                ],
                "metallicFactor" : 0,
                "roughnessFactor" : 0.5
            }
        },
        {
            "doubleSided" : true,
            "name" : "\u041c\u0430\u0442\u0435\u0440\u0438\u0430\u043b.001",
            "pbrMetallicRoughness" : {
                "baseColorFactor" : [
                    0.005187550093978643,
                    0.20791654288768768,
                    0.004069389309734106,
                    1
                ],
                "metallicFactor" : 0,
                "roughnessFactor" : 0.5991735458374023
            }
        }
    ],
    "meshes" : [
        {
            "name" : "\u041e\u043a\u0440\u0443\u0436\u043d\u043e\u0441\u0442\u044c.006",
            "primitives" : [
                {
                    "attributes" : {
                        "POSITION" : 0,
                        "NORMAL" : 1,
                        "TEXCOORD_0" : 2
                    },
                    "indices" : 3,
                    "material" : 0
                },
                {
                    "attributes" : {
                        "POSITION" : 4,
                        "NORMAL" : 5,
                        "TEXCOORD_0" : 6
                    },
                    "indices" : 7,
                    "material" : 1
                },
                {
                    "attributes" : {
                        "POSITION" : 8,
                        "NORMAL" : 9,
                        "TEXCOORD_0" : 10
                    },
                    "indices" : 11,
                    "material" : 2
                }
            ]
        }
    ],
    "accessors" : [
        {
            "bufferView" : 0,
            "componentType" : 5126,
            "count" : 110,
            "max" : [
                0.00978823471814394,
                2.372891426086426,
                0.009488476440310478
            ],
            "min" : [
                -0.009788607247173786,
                2.119612693786621,
                -0.009889096952974796
            ],
            "type" : "VEC3"
        },
        {
            "bufferView" : 1,
            "componentType" : 5126,
            "count" : 110,
            "type" : "VEC3"
        },
        {
            "bufferView" : 2,
            "componentType" : 5126,
            "count" : 110,
            "type" : "VEC2"
        },
        {
            "bufferView" : 3,
            "componentType" : 5123,
            "count" : 186,
            "type" : "SCALAR"
        },
        {
            "bufferView" : 4,
            "componentType" : 5126,
            "count" : 66,
            "max" : [
                0.1773739457130432,
                0.4784085154533386,
                0.17193923890590668
            ],
            "min" : [
                -0.17737418413162231,
                -0.5681021809577942,
                -0.17919807136058807
            ],
            "type" : "VEC3"
        },
        {
            "bufferView" : 5,
            "componentType" : 5126,
            "count" : 66,
            "type" : "VEC3"
        },
        {
            "bufferView" : 6,
            "componentType" : 5126,
            "count" : 66,
            "type" : "VEC2"
        },
        {
            "bufferView" : 7,
            "componentType" : 5123,
            "count" : 120,
            "type" : "SCALAR"
        },
        {
            "bufferView" : 8,
            "componentType" : 5126,
            "count" : 928,
            "max" : [
                0.9075388312339783,
                2.2614574432373047,
                0.9075390100479126
            ],
            "min" : [
                -0.9075390696525574,
                -0.11071749776601791,
                -0.9075391292572021
            ],
            "type" : "VEC3"
        },
        {
            "bufferView" : 9,
            "componentType" : 5126,
            "count" : 928,
            "type" : "VEC3"
        },
        {
            "bufferView" : 10,
            "componentType" : 5126,
            "count" : 928,
            "type" : "VEC2"
        },
        {
            "bufferView" : 11,
            "componentType" : 5123,
            "count" : 1344,
            "type" : "SCALAR"
        },
        {
            "bufferView" : 12,
            "componentType" : 5126,
            "count" : 161,
            "max" : [
                6.666666666666667
            ],
            "min" : [
                0
            ],
            "type" : "SCALAR"
        },
        {
            "bufferView" : 13,
            "componentType" : 5126,
            "count" : 161,
            "type" : "VEC4"
        },
        {
            "bufferView" : 14,
            "componentType" : 5126,
            "count" : 161,
            "type" : "VEC3"
        },
        {
            "bufferView" : 15,
            "componentType" : 5126,
            "count" : 161,
            "type" : "VEC3"
        }
    ],
    "bufferViews" : [
        {
            "buffer" : 0,
            "byteLength" : 1320,
            "byteOffset" : 0
        },
        {
            "buffer" : 0,
            "byteLength" : 1320,
            "byteOffset" : 1320
        },
        {
            "buffer" : 0,
            "byteLength" : 880,
            "byteOffset" : 2640
        },
        {
            "buffer" : 0,
            "byteLength" : 372,
            "byteOffset" : 3520
        },
        {
            "buffer" : 0,
            "byteLength" : 792,
            "byteOffset" : 3892
        },
        {
            "buffer" : 0,
            "byteLength" : 792,
            "byteOffset" : 4684
        },
        {
            "buffer" : 0,
            "byteLength" : 528,
            "byteOffset" : 5476
        },
        {
            "buffer" : 0,
            "byteLength" : 240,
            "byteOffset" : 6004
        },
        {
            "buffer" : 0,
            "byteLength" : 11136,
            "byteOffset" : 6244
        },
        {
            "buffer" : 0,
            "byteLength" : 11136,
            "byteOffset" : 17380
        },
        {
            "buffer" : 0,
            "byteLength" : 7424,
            "byteOffset" : 28516
        },
        {
            "buffer" : 0,
            "byteLength" : 2688,
            "byteOffset" : 35940
        },
        {
            "buffer" : 0,
            "byteLength" : 644,
            "byteOffset" : 38628
        },
        {
            "buffer" : 0,
            "byteLength" : 2576,
            "byteOffset" : 39272
        },
        {
            "buffer" : 0,
            "byteLength" : 1932,
            "byteOffset" : 41848
        },
        {
            "buffer" : 0,
            "byteLength" : 1932,
            "byteOffset" : 43780
        }
    ],
    "buffers" : [
        {
            "byteLength" : 45712,
            "uri" : "data:application/octet-stream;base64,"
        }
    ]
}
